<svg id="Layer_1" data-name="Layer 1" xmlns="http://www.w3.org/2000/svg" viewBox="0 0 1024 150"><defs><style>.cls-1{fill:#c00;fill-rule:evenodd;}</style></defs><path d="M278.63,76.64,316,28.52h37.84L307.08,83.76l51.13,61.44H318.5L278.63,94.59V145.2H248V28.52h30.65Z"/><path d="M392.61,65.81v44.72q0,14.7,14.38,14.7t14.38-14.7V65.81h28.3V116q0,16.1-10.71,24.14t-32,8q-21.27,0-32-8T364.31,116V65.81Z"/><path d="M530.82,65.81h28.45V145.2H530.82v-8.83q-9.08,11.31-24.55,11.3a40.26,40.26,0,0,1-16.1-3.17,38.64,38.64,0,0,1-12.82-8.9,41,41,0,0,1-8.53-13.46,45.67,45.67,0,0,1-3-16.87,44.32,44.32,0,0,1,3-16.17A41.57,41.57,0,0,1,477,75.71,38.74,38.74,0,0,1,506,63.33q15,0,24.86,10.37Zm-35.65,39.46a18.42,18.42,0,0,0,5.24,13,17.17,17.17,0,0,0,5.78,3.87,18.79,18.79,0,0,0,7.27,1.39,18.4,18.4,0,0,0,7.12-1.39,17.17,17.17,0,0,0,5.78-3.87,19.87,19.87,0,0,0,3.91-5.73,16.51,16.51,0,0,0,1.49-7,17.07,17.07,0,0,0-1.49-7,19.55,19.55,0,0,0-3.91-5.8,17.17,17.17,0,0,0-5.78-3.87,18.41,18.41,0,0,0-7.12-1.4,18.8,18.8,0,0,0-7.27,1.4,17.17,17.17,0,0,0-5.78,3.87,19,19,0,0,0-3.83,5.64A16.78,16.78,0,0,0,495.17,105.27Z"/><path d="M640.42,16.75h28.46V145.2H640.42v-8.83q-9.07,11.31-24.55,11.3a39.29,39.29,0,0,1-16.1-3.25,39.73,39.73,0,0,1-12.82-9A41,41,0,0,1,578.43,122a47,47,0,0,1-.16-32.88,40.39,40.39,0,0,1,8.21-13.39,38.92,38.92,0,0,1,12.74-9,39.49,39.49,0,0,1,16.34-3.33q15,0,24.86,10.37Zm-35.65,88.52a18.42,18.42,0,0,0,5.24,13,17.17,17.17,0,0,0,5.78,3.87,18.81,18.81,0,0,0,7.28,1.39,18.35,18.35,0,0,0,7.11-1.39,17.17,17.17,0,0,0,5.78-3.87,19.87,19.87,0,0,0,3.91-5.73,16.51,16.51,0,0,0,1.49-7,17.07,17.07,0,0,0-1.49-7,19.55,19.55,0,0,0-3.91-5.8,17.17,17.17,0,0,0-5.78-3.87,18.78,18.78,0,0,0-14.23,0,17.17,17.17,0,0,0-5.78,3.87,20.28,20.28,0,0,0-3.91,5.64A16.06,16.06,0,0,0,604.77,105.27Z"/><path d="M688.1,65.81h28.3v13A32.28,32.28,0,0,1,727.5,67.9a30.1,30.1,0,0,1,15.33-3.79h2.42a17.2,17.2,0,0,1,3,.31V91.19a27.09,27.09,0,0,0-12.2-2.79q-9.84,0-14.77,5.8t-4.93,17v34H688.1Z"/><path d="M823.82,65.81h28.45V145.2H823.82v-8.83q-9.08,11.31-24.55,11.3a40.31,40.31,0,0,1-16.11-3.17,38.74,38.74,0,0,1-12.82-8.9,40.84,40.84,0,0,1-8.52-13.46,45.67,45.67,0,0,1-3.05-16.87,44.32,44.32,0,0,1,3-16.17A41.42,41.42,0,0,1,770,75.71,38.7,38.7,0,0,1,799,63.33q15,0,24.86,10.37Zm-35.65,39.46a18.36,18.36,0,0,0,5.23,13,17.32,17.32,0,0,0,5.79,3.87,18.76,18.76,0,0,0,7.27,1.39,18.35,18.35,0,0,0,7.11-1.39,17.32,17.32,0,0,0,5.79-3.87,20.07,20.07,0,0,0,3.91-5.73,16.5,16.5,0,0,0,1.48-7,17.07,17.07,0,0,0-1.48-7,19.74,19.74,0,0,0-3.91-5.8,17.32,17.32,0,0,0-5.79-3.87,18.36,18.36,0,0,0-7.11-1.4,18.76,18.76,0,0,0-7.27,1.4,17.32,17.32,0,0,0-5.79,3.87,19.22,19.22,0,0,0-3.83,5.64A16.94,16.94,0,0,0,788.17,105.27Z"/><path d="M871.5,65.81h28.3V75.87q5.78-7,11.72-9.36a37,37,0,0,1,13.92-2.4,35,35,0,0,1,14.46,2.71,28.64,28.64,0,0,1,10.24,7.66,21.9,21.9,0,0,1,4.69,9,46,46,0,0,1,1.25,11.3V145.2H927.79V105.12a42.93,42.93,0,0,0-.86-9.52,11.83,11.83,0,0,0-3-5.8,10.7,10.7,0,0,0-4.23-2.63,15.73,15.73,0,0,0-5-.78q-7.18,0-11,4.26t-3.83,12.14V145.2H871.5Z"/><path d="M1006.9,89.18v56H978.6v-56h-9.38V65.81h9.38V42h28.3V65.81H1023V89.18Z"/><path id="Segment-1" class="cls-1" d="M118,1a103.84,103.84,0,0,1,27.39,101.09A104.38,104.38,0,0,1,118,149L43.18,75h0Z"/><rect id="Rectangle" x="1" y="1" width="31.57" height="148"/></svg>